<?xml version="1.0" encoding="utf-8"?>
<!-- Generator: Adobe Illustrator 24.2.3, SVG Export Plug-In . SVG Version: 6.00 Build 0)  -->
<svg version="1.1" id="Capa_1" xmlns="http://www.w3.org/2000/svg" xmlns:xlink="http://www.w3.org/1999/xlink" x="0px" y="0px"
	 viewBox="0 0 385 385" style="enable-background:new 0 0 385 385;" xml:space="preserve">
<style type="text/css">
	.st0{fill:#FFFFFF;}
</style>
<g>
	<g id="Chevron_Down_Circle">
		<path class="st0" d="M192.5,0C86.2,0,0,86.2,0,192.5C0,298.8,86.2,385,192.5,385C298.8,385,385,298.8,385,192.5
			C385,86.2,298.8,0,192.5,0z M192.5,360.9c-92.9,0-168.4-75.5-168.4-168.4S99.6,24.1,192.5,24.1s168.8,75.6,168.8,168.4
			S285.4,360.9,192.5,360.9z"/>
		<path class="st0" d="M268.3,149.1l-75.6,74.5l-75.6-74.5c-4.7-4.7-12.4-4.7-17.2,0c-4.7,4.7-4.7,12.3,0,17l84.2,83
			c4.6,4.6,12.6,4.6,17.2,0l84.2-83c4.7-4.7,4.7-12.3,0-17C280.7,144.4,273,144.4,268.3,149.1z"/>
	</g>
</g>
</svg>
